<?xml version="1.0" standalone="no"?>
<!DOCTYPE svg PUBLIC "-//W3C//DTD SVG 20010904//EN"
 "http://www.w3.org/TR/2001/REC-SVG-20010904/DTD/svg10.dtd">
<svg version="1.0" xmlns="http://www.w3.org/2000/svg"
 width="192.000000pt" height="192.000000pt" viewBox="0 0 192.000000 192.000000"
 preserveAspectRatio="xMidYMid meet">
<metadata>
Created by potrace 1.14, written by Peter Selinger 2001-2017
</metadata>
<g transform="translate(0.000000,192.000000) scale(0.100000,-0.100000)"
fill="#000000" stroke="none">
<path d="M240 1425 l0 -305 300 0 300 0 0 305 0 305 -300 0 -300 0 0 -305z"/>
<path d="M1090 1415 l0 -305 335 0 335 0 0 305 0 305 -335 0 -335 0 0 -305z"/>
<path d="M580 455 l0 -335 565 0 565 0 0 335 0 335 -565 0 -565 0 0 -335z"/>
</g>
</svg>
