<?xml version="1.0" encoding="UTF-8" standalone="no" ?>
<!DOCTYPE svg PUBLIC "-//W3C//DTD SVG 1.1//EN" "http://www.w3.org/Graphics/SVG/1.1/DTD/svg11.dtd">
<svg xmlns="http://www.w3.org/2000/svg" xmlns:xlink="http://www.w3.org/1999/xlink" version="1.1" width="500" height="500" viewBox="0 0 500 500" xml:space="preserve">
<desc>Created with Fabric.js 4.6.0</desc>
<defs>
</defs>
<g transform="matrix(2.45 0 0 0.86 253.04 156.44)" id="w4NzZVkIk9ts9P6EaQ52a"  >
<path style="stroke: rgb(244,0,9); stroke-width: 1; stroke-dasharray: none; stroke-linecap: butt; stroke-dashoffset: 0; stroke-linejoin: miter; stroke-miterlimit: 4; fill: rgb(244,0,9); fill-rule: nonzero; opacity: 1;" vector-effect="non-scaling-stroke"  transform=" translate(0, 0)" d="M -87.45685 -87.45685 L 87.45684 -87.45685 L 87.45684 87.45684 L -87.45685 87.45684 z" stroke-linecap="round" />
</g>
<g transform="matrix(1.3 0 0 1 133.52 78.54)" id="Zs6qpU2DrBGOJ61HMAHKA"  >
<path style="stroke: rgb(244,0,9); stroke-width: 1; stroke-dasharray: none; stroke-linecap: butt; stroke-dashoffset: 0; stroke-linejoin: miter; stroke-miterlimit: 4; fill: rgb(244,0,9); fill-rule: nonzero; opacity: 1;" vector-effect="non-scaling-stroke"  transform=" translate(0, 0)" d="M 0 -60.70195 C 33.50748 -60.70195 60.70195 -33.50747 60.70195 0 C 60.70195 33.50748 33.50747 60.70195 0 60.70195 C -33.50748 60.70195 -60.70195 33.50747 -60.70195 0 C -60.70195 -33.50748 -33.50747 -60.70195 0 -60.70195 z" stroke-linecap="round" />
</g>
<g transform="matrix(1.3 0 0 1 360.44 88.33)" id="2v530LTfAnvSfuQlLfi62"  >
<path style="stroke: rgb(244,0,9); stroke-width: 1; stroke-dasharray: none; stroke-linecap: butt; stroke-dashoffset: 0; stroke-linejoin: miter; stroke-miterlimit: 4; fill: rgb(244,0,9); fill-rule: nonzero; opacity: 1;" vector-effect="non-scaling-stroke"  transform=" translate(0, 0)" d="M 0 -60.70195 C 33.50748 -60.70195 60.70195 -33.50747 60.70195 0 C 60.70195 33.50748 33.50747 60.70195 0 60.70195 C -33.50748 60.70195 -60.70195 33.50747 -60.70195 0 C -60.70195 -33.50748 -33.50747 -60.70195 0 -60.70195 z" stroke-linecap="round" />
</g>
<g transform="matrix(2 0 0 0.55 249.06 240.06)" id="cv3LDNcbBwYpaPQ9msykN"  >
<path style="stroke: rgb(244,0,9); stroke-width: 1; stroke-dasharray: none; stroke-linecap: butt; stroke-dashoffset: 0; stroke-linejoin: miter; stroke-miterlimit: 4; fill: rgb(244,0,9); fill-rule: nonzero; opacity: 1;" vector-effect="non-scaling-stroke"  transform=" translate(0, 0)" d="M -87.45685 -87.45685 L 87.45684 -87.45685 L 87.45684 87.45684 L -87.45685 87.45684 z" stroke-linecap="round" />
</g>
<g transform="matrix(1.51 0 0 0.43 253.43 296.38)" id="AQogJiMw-wrgOxV3d8O7d"  >
<path style="stroke: rgb(244,0,9); stroke-width: 1; stroke-dasharray: none; stroke-linecap: butt; stroke-dashoffset: 0; stroke-linejoin: miter; stroke-miterlimit: 4; fill: rgb(244,0,9); fill-rule: nonzero; opacity: 1;" vector-effect="non-scaling-stroke"  transform=" translate(0, 0)" d="M -87.45685 -87.45685 L 87.45684 -87.45685 L 87.45684 87.45684 L -87.45685 87.45684 z" stroke-linecap="round" />
</g>
<g transform="matrix(1.03 0 0 0.42 245.97 344.14)" id="TXmIPDiXC_DXKpEUVouiQ"  >
<path style="stroke: rgb(244,0,9); stroke-width: 1; stroke-dasharray: none; stroke-linecap: butt; stroke-dashoffset: 0; stroke-linejoin: miter; stroke-miterlimit: 4; fill: rgb(244,0,9); fill-rule: nonzero; opacity: 1;" vector-effect="non-scaling-stroke"  transform=" translate(0, 0)" d="M -87.45685 -87.45685 L 87.45684 -87.45685 L 87.45684 87.45684 L -87.45685 87.45684 z" stroke-linecap="round" />
</g>
<g transform="matrix(0.51 0 0 0.54 245.97 387.82)" id="poxlXN7WuE-9DsQOqNvtN"  >
<path style="stroke: rgb(244,0,9); stroke-width: 1; stroke-dasharray: none; stroke-linecap: butt; stroke-dashoffset: 0; stroke-linejoin: miter; stroke-miterlimit: 4; fill: rgb(244,0,9); fill-rule: nonzero; opacity: 1;" vector-effect="non-scaling-stroke"  transform=" translate(0, 0)" d="M -87.45685 -87.45685 L 87.45684 -87.45685 L 87.45684 87.45684 L -87.45685 87.45684 z" stroke-linecap="round" />
</g>
<g transform="matrix(0.36 0 0 0.39 264.52 403.9)" id="DKIVpSn271CiUNcoAakCU"  >
<path style="stroke: rgb(244,0,9); stroke-width: 1; stroke-dasharray: none; stroke-linecap: butt; stroke-dashoffset: 0; stroke-linejoin: miter; stroke-miterlimit: 4; fill: rgb(244,0,9); fill-rule: nonzero; opacity: 1;" vector-effect="non-scaling-stroke"  transform=" translate(0, 0)" d="M -87.45685 -87.45685 L 87.45684 -87.45685 L 87.45684 87.45684 L -87.45685 87.45684 z" stroke-linecap="round" />
</g>
<g transform="matrix(19.16 0 0 20.77 249.87 250)" id="s_WJH5yjQ4cula_KaRmZi"  >
<path style="stroke: none; stroke-width: 1; stroke-dasharray: none; stroke-linecap: butt; stroke-dashoffset: 0; stroke-linejoin: miter; stroke-miterlimit: 4; fill: rgb(0,0,0); fill-rule: nonzero; opacity: 1;" vector-effect="non-scaling-stroke"  transform=" translate(-16, -16)" d="M 22 4 C 19.53959358066605 4.000861584598311 17.26082622030632 5.295201445282639 15.999999999999996 7.408000000000005 C 14.739173779693674 5.295201445282635 12.460406419333943 4.000861584598307 9.999999999999995 3.999999999999999 C 6.134006751184446 4 3 7.134006751184446 3 11 C 3 12.933 3.761 14.706 5 16 C 7.8149999999999995 18.94 16 28 16 28 C 16 28 24.185000000000002 18.939999999999998 27 16 C 28.286180009987863 14.65339931602759 29.002681604492995 12.862145329764758 29 11.000000000000004 C 29 7.134006751184446 25.865993248815556 4 22 4 z M 25.556 14.617 C 23.457 16.808 18.499 22.262 16 25.02 C 13.501 22.262999999999998 8.543 16.808999999999997 6.444000000000001 14.616999999999999 C 5.512653668322508 13.643679236876622 4.995034015901993 12.347120869283128 5.000000000000001 11 C 5 8.243 7.243 6 10 6 C 11.768 6 13.369 6.911 14.285 8.437 L 16 11.294 L 17.715 8.437000000000001 C 18.610282150576978 6.92244701114565 20.240631348511457 5.995221574654092 22 6 C 24.757 6 27 8.243 27 11 C 27 12.36 26.487 13.644 25.556 14.617 z" stroke-linecap="round" />
</g>
</svg>